<?xml version="1.0" encoding="utf-8"?>
<!-- Generator: Adobe Illustrator 21.0.2, SVG Export Plug-In . SVG Version: 6.00 Build 0)  -->
<svg version="1.2" baseProfile="tiny" id="Layer_1" xmlns="http://www.w3.org/2000/svg" xmlns:xlink="http://www.w3.org/1999/xlink"
	 x="0px" y="0px" viewBox="0 0 3072.5 255.1" xml:space="preserve">
<g>
	<path fill="#A8AAAC" d="M0,249.3v-6.9c9.4-1.1,16.4-4.6,21.1-10.5c4.7-5.9,12.8-22.4,24.2-49.4L121.2,3.3h7.9l90.8,207.3
		c6.1,13.6,11,22,14.6,25.3c3.7,3.2,9.8,5.4,18.4,6.6v6.9h-93.2v-6.9c10.7-1,17.5-2.1,20.6-3.5c3.1-1.3,4.6-4.7,4.6-10
		c0-1.7-0.6-4.9-1.8-9.4c-1.2-4.4-2.9-9.1-5-14.1l-14.6-35H67.3c-9.6,23.8-15.3,38.3-17.1,43.6c-1.8,5.2-2.8,9.3-2.8,12.4
		c0,6.1,2.5,10.4,7.5,12.7c3.1,1.4,8.9,2.5,17.5,3.2v6.9H0L0,249.3z M157.6,155.9l-42-101l-42.1,101H157.6L157.6,155.9z"/>
	<path fill="#A8AAAC" d="M248.9,22v-6.1c13.6-3,25.9-6.5,36.8-10.3C296.5,1.9,302.4,0,303.2,0c0.2,0.7,0.4,1.4,0.4,2.1v108.6
		c3.1-5.7,7.7-11.1,13.9-16.2c11-8.9,23.6-13.3,37.8-13.3c17.5,0,32.4,7.4,44.8,22.1c12.4,14.8,18.5,33.9,18.5,57.5
		c0,25.2-8,46.8-24.1,64.8c-16.1,18-37.2,27-63.5,27c-13.2,0-26.2-2.6-39-7.8c-12.8-5.3-19.1-10.5-19.1-15.7V40.4
		c0-7-1-11.9-2.9-14.9c-1.9-2.9-6.3-4.4-13.2-4.4L248.9,22L248.9,22z M317,236.3c8.2,2.7,15.3,4,21.4,4c16.6,0,28.8-6.3,36.8-18.8
		c8-12.5,12-27.6,12-45.3c0-17.8-3.7-34.1-11.2-49.2c-7.4-15.1-19.5-22.6-36.2-22.6c-8.4,0-16.6,2.6-24.7,7.8
		c-8,5.1-12.1,11.7-12.1,19.7V223C304.2,229.2,308.8,233.6,317,236.3L317,236.3z"/>
	<path fill="#A8AAAC" d="M565.4,99.5c12.6,11.6,18.9,28.1,18.9,49.5H471.7c1.2,27.5,7.4,47.7,18.7,60.2c11.3,12.6,24.6,18.9,40,18.9
		c12.4,0,22.9-3.3,31.5-9.9c8.5-6.5,16.4-15.8,23.6-27.8l6.3,2.1c-4.9,15.1-14,29.1-27.4,41.9c-13.4,12.8-29.7,19.3-49.1,19.3
		c-22.3,0-39.6-8.5-51.8-25.4c-12.2-16.9-18.3-36.4-18.3-58.4c0-23.9,7-44.6,21.2-62C480.5,90.7,498.8,82,521.5,82
		C538.2,82,552.9,87.8,565.4,99.5L565.4,99.5z M480.5,113.2c-3.8,6.4-6.5,14.6-8.1,24.4h74.8c-1.3-11.9-3.6-20.9-6.7-26.7
		c-5.8-10.5-15.5-15.8-29.1-15.8C497.9,95.1,487.6,101.1,480.5,113.2L480.5,113.2z"/>
	<path fill="#A8AAAC" d="M608.6,243.6c11-1,18.3-2.9,21.9-5.8c3.6-2.9,5.4-9.1,5.4-18.7v-80.8c0-11.9-1.1-20.3-3.3-25.4
		c-2.2-5.1-6.2-7.6-12-7.6c-1.2,0-2.8,0.1-4.7,0.4c-1.9,0.3-4,0.7-6.1,1.2v-5.7c6.8-2.4,13.8-4.8,21-7.3c7.2-2.5,12.2-4.3,15-5.4
		c6-2.3,12.2-4.8,18.5-7.7c0.8,0,1.3,0.3,1.5,0.9c0.2,0.6,0.3,1.9,0.3,3.9v29.2C673.7,104.3,681,96,688,90.1
		c7-5.9,14.3-8.9,21.9-8.9c6,0,10.9,1.8,14.7,5.4c3.8,3.6,5.7,8.2,5.7,13.6c0,4.9-1.5,9-4.3,12.3c-2.9,3.3-6.5,5-10.9,5
		c-4.5,0-9-2.1-13.5-6.3c-4.5-4.1-8.1-6.2-10.7-6.2c-4.1,0-9.2,3.4-15.2,10.1c-6,6.7-9,13.7-9,20.8v80.4c0,10.4,2.4,17.6,7.2,21.6
		c4.8,4,12.7,5.9,23.9,5.7v5.7h-89V243.6L608.6,243.6z"/>
	<path fill="#A8AAAC" d="M866,92.3c10.8,7.7,16.2,16,16.2,25.1c0,3.9-1.4,7.6-4.1,10.9c-2.7,3.4-7,5.1-12.7,5.1
		c-4.2,0-7.8-1.4-11-4.3c-3.2-2.9-5.4-7-6.9-12.5l-2.1-8.6c-1.5-6.3-4.2-10.8-8-13.4c-3.9-2.5-9.1-3.7-15.5-3.7
		c-13.6,0-25,5.9-34.3,17.8c-9.3,11.8-14,27.6-14,47.3c0,18,5.1,34.2,15.4,48.5c10.3,14.3,24.1,21.5,41.6,21.5
		c12.3,0,23.3-4.1,33-12.2c5.5-4.7,11.6-12.1,18.5-22.2l5,3c-6.8,14.3-13.9,25.6-21.4,33.9c-14.4,16-31,24-50,24
		c-18.6,0-35-7.3-49.2-22c-14.3-14.7-21.4-34.5-21.4-59.6c0-24.7,7.8-45.9,23.4-63.6c15.6-17.7,35.3-26.6,59.1-26.6
		C842.4,80.8,855.3,84.6,866,92.3L866,92.3z"/>
	<path fill="#A8AAAC" d="M898.9,243.6c11-1,18.4-2.9,21.9-5.8c3.6-2.9,5.4-9.1,5.4-18.7v-80.8c0-11.9-1.1-20.3-3.3-25.4
		c-2.2-5.1-6.2-7.6-12-7.6c-1.2,0-2.8,0.1-4.7,0.4c-2,0.3-4,0.7-6.1,1.2v-5.7c6.8-2.4,13.9-4.8,21.1-7.3c7.2-2.5,12.2-4.3,14.9-5.4
		c6-2.3,12.2-4.8,18.5-7.7c0.8,0,1.4,0.3,1.5,0.9c0.2,0.6,0.3,1.9,0.3,3.9v29.2c7.5-10.6,14.8-18.8,21.9-24.8
		c7-5.9,14.3-8.9,21.9-8.9c6,0,10.9,1.8,14.7,5.4c3.8,3.6,5.7,8.2,5.7,13.6c0,4.9-1.5,9-4.4,12.3c-2.9,3.3-6.5,5-10.8,5
		c-4.5,0-9-2.1-13.5-6.3c-4.6-4.1-8.1-6.2-10.7-6.2c-4.1,0-9.2,3.4-15.2,10.1c-6,6.7-9,13.7-9,20.8v80.4c0,10.4,2.4,17.6,7.2,21.6
		c4.8,4,12.7,5.9,23.9,5.7v5.7h-89V243.6L898.9,243.6z"/>
	<path fill="#A8AAAC" d="M1050.3,106.5c15-16.4,34.4-24.5,58.1-24.5c23.6,0,43.1,7.7,58.5,23.2c15.5,15.4,23.2,36.1,23.2,61.8
		c0,23.7-7.5,44.3-22.5,61.8c-15,17.5-34.4,26.3-58.2,26.3c-22.8,0-42.2-8.4-58-25.2c-15.8-16.8-23.7-37.9-23.7-63.2
		C1027.8,143,1035.3,122.9,1050.3,106.5L1050.3,106.5z M1078.8,101.5c-11.9,10.9-17.9,29.6-17.9,56.3c0,21.3,4.8,41.1,14.4,59.5
		c9.6,18.4,23,27.6,40.1,27.6c13.4,0,23.7-6.2,31-18.5c7.2-12.3,10.9-28.4,10.9-48.4c0-20.7-4.6-40.1-13.8-58.4
		c-9.2-18.3-22.5-27.4-40-27.4C1093.9,92.2,1085.7,95.3,1078.8,101.5L1078.8,101.5z"/>
	<path fill="#A8AAAC" d="M1205.8,244.4c9.3-0.9,15.5-2.4,18.6-4.7c4.8-3.5,7.1-10.3,7.1-20.6v-92.2c0-8.9-1.1-14.8-3.4-17.5
		c-2.3-2.8-6.1-4.1-11.5-4.1c-2.5,0-4.4,0.1-5.6,0.3c-1.2,0.3-2.7,0.7-4.3,1.3v-6.1l12.9-4.3c4.7-1.6,12.3-4.4,22.9-8.4
		c10.6-4.1,16.2-6.1,16.8-6.1c0.6,0,1,0.3,1.1,0.9c0.1,0.6,0.2,1.8,0.2,3.4v24.2c11.7-10.8,21.9-18.2,30.4-22.3
		c8.5-4.1,17.3-6.2,26.3-6.2c12.2,0,22,4.2,29.2,12.5c3.8,4.6,6.9,10.7,9.4,18.5c8.8-9,16.5-15.5,23.1-19.9
		c11.3-7.4,22.9-11.1,34.7-11.1c19.2,0,32,7.8,38.4,23.4c3.7,8.8,5.5,22.7,5.5,41.7v74.1c0,8.5,1.9,14.2,5.6,17.2
		c3.7,3,10.4,5.1,20.1,6v4.9H1403v-4.9c10.3-1,17.1-3.1,20.4-6.3c3.2-3.2,4.9-9.9,4.9-19.8v-77c0-11.5-1.2-20-3.7-25.5
		c-4.4-9.8-13.1-14.7-25.9-14.7c-7.8,0-15.5,2.6-23.1,7.6c-4.4,3-9.8,7.8-16.2,14.3v91.5c0,9.5,1.7,16.8,5,21.8
		c3.4,5,10.5,7.7,21.5,8v4.9h-81.6v-4.9c11.2-1.4,18.4-4.1,21.5-8.1c3.1-4,4.6-14,4.6-29.9v-50c0-18.3-1.2-30.9-3.6-37.8
		c-3.9-11.7-12.2-17.5-24.8-17.5c-7.2,0-14.3,2-21.3,6c-7,4-13.1,9.3-18.4,15.7v98.3c0,8.7,1.6,14.7,4.7,18.1c3.1,3.3,10,5,20.6,5.2
		v4.9h-81.6V244.4L1205.8,244.4z"/>
	<path fill="#A8AAAC" d="M1484.7,22v-6.1c13.6-3,25.9-6.5,36.8-10.3c10.9-3.8,16.7-5.6,17.6-5.6c0.2,0.7,0.3,1.4,0.3,2.1v108.6
		c3.1-5.7,7.7-11.1,13.9-16.2c10.9-8.9,23.6-13.3,37.8-13.3c17.5,0,32.4,7.4,44.8,22.1c12.4,14.8,18.6,33.9,18.6,57.5
		c0,25.2-8.1,46.8-24.2,64.8c-16.1,18-37.2,27-63.5,27c-13.2,0-26.2-2.6-39-7.8c-12.8-5.3-19.1-10.5-19.1-15.7V40.4
		c0-7-1-11.9-2.8-14.9c-1.9-2.9-6.3-4.4-13.2-4.4L1484.7,22L1484.7,22z M1552.8,236.3c8.2,2.7,15.3,4,21.5,4
		c16.6,0,28.8-6.3,36.8-18.8c8-12.5,12-27.6,12-45.3c0-17.8-3.7-34.1-11.2-49.2c-7.4-15.1-19.5-22.6-36.2-22.6
		c-8.4,0-16.6,2.6-24.7,7.8c-8,5.1-12,11.7-12,19.7V223C1540,229.2,1544.6,233.6,1552.8,236.3L1552.8,236.3z"/>
	<path fill="#A8AAAC" d="M1672.5,244.4c12.7-1.2,20.7-3.4,24-6.5c3.3-3.2,5-11.7,5-25.7v-85.3c0-8-0.6-13.5-1.6-16.6
		c-1.8-5-5.5-7.4-11.2-7.4c-1.3,0-2.6,0.1-3.8,0.3c-1.2,0.2-4.8,1.2-10.7,2.9v-4.9l7.6-2.5c20.7-6.8,35-12,43.2-15.4
		c3.3-1.4,5.4-2.1,6.4-2.1c0.2,0.8,0.3,1.8,0.3,2.7v128.3c0,13.6,1.6,22.2,5,25.7c3.3,3.5,10.8,5.7,22.4,6.6v4.9h-86.5V244.4
		L1672.5,244.4z M1700.3,5.5c3.5-3.7,8-5.5,13.2-5.5c5.1,0,9.5,1.8,13.1,5.4c3.6,3.6,5.5,8,5.5,13.2c0,5.1-1.8,9.5-5.5,13.1
		c-3.6,3.6-8,5.5-13.1,5.5c-5.2,0-9.7-1.9-13.2-5.5c-3.6-3.6-5.4-7.9-5.4-13.1C1695,13.5,1696.8,9.2,1700.3,5.5L1700.3,5.5z"/>
	<path fill="#A8AAAC" d="M1893.3,99.5c12.6,11.6,18.9,28.1,18.9,49.5h-112.7c1.2,27.5,7.4,47.7,18.7,60.2
		c11.3,12.6,24.6,18.9,40,18.9c12.5,0,22.9-3.3,31.5-9.9c8.5-6.5,16.4-15.8,23.6-27.8l6.2,2.1c-4.9,15.1-14,29.1-27.4,41.9
		c-13.4,12.8-29.7,19.3-49.1,19.3c-22.3,0-39.6-8.5-51.8-25.4c-12.2-16.9-18.3-36.4-18.3-58.4c0-23.9,7-44.6,21.2-62
		c14.1-17.4,32.5-26.1,55.2-26.1C1866.1,82,1880.8,87.8,1893.3,99.5L1893.3,99.5z M1808.4,113.2c-3.8,6.4-6.5,14.6-8.2,24.4h74.8
		c-1.3-11.9-3.6-20.9-6.7-26.7c-5.8-10.5-15.5-15.8-29.1-15.8C1825.8,95.1,1815.5,101.1,1808.4,113.2L1808.4,113.2z"/>
	<path fill="#A8AAAC" d="M2101.1,111.6c-1.6-3.2-3.4-7.7-5.4-13.3c-2-5.6-3.5-10.2-4.3-13.6c-1-3.8-1.7-7.7-2.3-11.5
		c-0.6-3.9-0.9-7.7-0.9-11.4c0-17.2,5.3-31.4,15.8-42.8c10.5-11.3,23.8-17,40-17c14.7,0,26.8,4,36.2,12c9.5,8,14.2,18.7,14.2,32.2
		c0,15.8-6,28.6-18,38.7c-12,10.1-24.9,18.1-38.7,24.2c10.6,19.1,18.4,32.6,23.3,40.6c5,7.9,13.4,19.5,25.3,34.8
		c12.7-15.5,21.5-28.7,26.4-39.7c4.9-11.1,7.3-19.9,7.3-26.5c0-6.7-2.5-11.3-7.3-13.9c-3.1-1.5-8.5-2.6-16.2-3.2v-7.3h79.5v7.3
		c-8,1-14,2.4-18,4.3c-6.5,3.3-12,9.1-16.6,17.4l-9.4,17.1c-6.7,12.2-12.3,21.6-16.8,28.1c-4.5,6.4-11.3,15.3-20.3,26.8
		c4.8,5.6,10.3,11.3,16.4,17c13.3,11.3,26.7,17,40,17c7.9,0,14.6-1.9,20.2-5.8c3.3-2.4,7.9-7,13.5-13.8l5.3,4.3
		c-0.7,2.8-3.2,7.2-7.5,13.3c-4.3,6-8.5,10.8-12.4,14.1c-6.2,5.4-13.5,9.2-21.8,11.4c-4.9,1.4-9.7,2.1-14.4,2.1
		c-11.6,0-23.2-3.6-34.5-10.7c-6.8-4.2-16-11.6-27.4-22.2c-10.7,9.6-21.6,17-32.6,22c-14.3,7-30.1,10.5-47.3,10.5
		c-19.1,0-34.3-5.1-45.7-15.3c-11.4-10.2-17.1-24-17.1-41.6c0-16.5,5.1-31,15.2-43.5c10.1-12.5,24.4-23.9,42.6-34.3L2101.1,111.6
		L2101.1,111.6z M2135.2,228.8c9.6-3.6,18.8-9.2,27.5-16.9c-11.3-14.4-20.1-26.4-26.4-36.2c-6.3-9.8-16.2-26.9-29.6-51.3
		c-12.3,7.2-21.8,14.4-28.4,21.6c-10,11.1-15.1,23.9-15.1,38.6c0,13.5,4.4,25.1,13.3,35c8.9,9.8,20.3,14.8,34.2,14.8
		C2117.4,234.2,2125.6,232.5,2135.2,228.8L2135.2,228.8z M2158.3,79.2c10.6-10.3,16-21.7,16-34.1c0-9.3-2.7-16.9-8.1-22.6
		c-5.4-5.8-12.3-8.6-20.6-8.6c-9.1,0-16,2.9-21,8.8s-7.4,13.6-7.4,23.3c0,7.5,1.4,15.7,4.1,24.5c2.7,8.8,6.3,17.9,10.7,27.2
		C2143.6,91,2152.3,84.9,2158.3,79.2L2158.3,79.2z"/>
	<path fill="#A8AAAC" d="M2377.3,242.4c14.9-1.2,24.1-3.8,27.7-8c3.5-4.1,5.3-13.9,5.3-29.3V47.1c0-13.2-2-21.7-6-25.6
		c-4-3.8-13-6.3-27-7.2V7.3h104.1v6.9c-14.3,0.7-23.5,3.1-27.6,7.2c-4.2,4-6.3,12.6-6.3,25.6v74.8c22.6-19.3,41.1-35.7,55.4-49.2
		c25.6-24.2,38.5-39.7,38.5-46.6c0-4.9-2.1-8-6.5-9.6c-4.4-1.5-10.6-2.3-18.6-2.3V7.3h96.1v6.9c-11.7,1.1-20.9,3.4-27.6,6.7
		c-6.8,3.4-16.1,10.7-28.1,22l-71.6,65.8l87.3,93.8c15.9,16.8,26.6,27.4,32.3,31.6c5.8,4.2,14.2,6.9,25.2,8.2v6.9H2518v-6.9
		c10.1-0.4,16.9-1.2,20.5-2.5c3.6-1.2,5.4-3.7,5.4-7.4c0-2.1-1.2-5.2-3.5-9.4c-2.3-4.1-6-9-11-14.5l-70.6-75.8l-11.4,10.5v66
		c0,13.6,2.1,22.1,6.2,25.8c4.1,3.6,13.1,6,26.9,7.3v6.9h-103.2V242.4L2377.3,242.4z"/>
	<path fill="#A8AAAC" d="M2748.2,99.5c12.6,11.6,18.9,28.1,18.9,49.5h-112.6c1.2,27.5,7.4,47.7,18.7,60.2
		c11.3,12.6,24.6,18.9,40,18.9c12.4,0,22.9-3.3,31.4-9.9c8.6-6.5,16.4-15.8,23.7-27.8l6.2,2.1c-4.9,15.1-14,29.1-27.4,41.9
		c-13.4,12.8-29.7,19.3-49.1,19.3c-22.4,0-39.6-8.5-51.8-25.4c-12.2-16.9-18.3-36.4-18.3-58.4c0-23.9,7.1-44.6,21.2-62
		c14.1-17.4,32.5-26.1,55.2-26.1C2721,82,2735.7,87.8,2748.2,99.5L2748.2,99.5z M2663.3,113.2c-3.8,6.4-6.5,14.6-8.1,24.4h74.8
		c-1.3-11.9-3.5-20.9-6.7-26.7c-5.8-10.5-15.5-15.8-29.1-15.8C2680.6,95.1,2670.4,101.1,2663.3,113.2L2663.3,113.2z"/>
	<path fill="#A8AAAC" d="M2793.5,244.4c8.3-1.1,14.1-3.2,17.4-6.3c3.3-3.1,5-10.2,5-21v-91c0-7.6-0.7-12.9-2.1-16
		c-2.2-4.5-6.9-6.7-14-6.7c-1.1,0-2.2,0.1-3.3,0.2c-1.2,0.2-2.6,0.3-4.2,0.5v-6.1c4.9-1.5,16.5-5.1,34.8-11.2l16.8-5.6
		c0.8,0,1.4,0.3,1.5,0.9c0.2,0.6,0.2,1.4,0.2,2.4v26c11-10.2,19.5-17.2,25.7-21c9.2-5.8,18.9-8.7,28.9-8.7c8.1,0,15.5,2.3,22.1,7
		c12.9,9.1,19.3,25.3,19.3,48.5V220c0,8.6,1.7,14.8,5.2,18.6c3.4,3.8,9.2,5.8,17.2,5.9v4.9h-76.3v-4.9c8.6-1.2,14.7-3.6,18.1-7.3
		c3.4-3.6,5.1-11.5,5.1-23.7v-76.6c0-10.3-1.9-18.8-5.7-25.6c-3.8-6.7-10.8-10.1-21-10.1c-7,0-14.1,2.4-21.4,7.2
		c-4,2.7-9.2,7.3-15.6,13.6v100.4c0,8.6,1.9,14.3,5.7,17.3c3.8,2.9,9.8,4.5,18,4.8v4.9h-77.5V244.4L2793.5,244.4z"/>
	<path fill="#A8AAAC" d="M3063.1,84.9v12.2h-36.3l-0.4,102.7c0,9,0.8,15.9,2.4,20.5c2.9,8.2,8.5,12.3,16.9,12.3c4.3,0,8.1-1,11.3-3
		c3.2-2,6.8-5.2,10.9-9.6l4.6,3.9l-3.9,5.4c-6.2,8.5-12.7,14.5-19.7,18c-6.9,3.5-13.6,5.3-20,5.3c-14.1,0-23.6-6.3-28.6-18.8
		c-2.7-6.8-4.1-16.2-4.1-28.3V97.1h-19.4c-0.6-0.4-1.1-0.7-1.4-1c-0.3-0.3-0.4-0.8-0.4-1.4c0-1.1,0.3-2,0.8-2.6
		c0.5-0.6,2.3-2.1,5.1-4.4c8.2-6.7,14-12.2,17.6-16.4c3.6-4.3,12.1-15.4,25.5-33.4c1.6,0,2.5,0.1,2.8,0.3c0.3,0.2,0.5,1.1,0.5,2.7
		v43.9H3063.1L3063.1,84.9z"/>
</g>
</svg>
